<svg width="68" height="68" viewBox="0 0 68 68" fill="none" xmlns="http://www.w3.org/2000/svg">
<path fill-rule="evenodd" clip-rule="evenodd" d="M34.0006 0C34.8124 13.9151 35.9152 21.9785 39.9844 26.7554C42.8721 24.9221 46.2082 21.8019 50.6408 17.3605C46.3543 21.8693 43.2685 25.2689 41.4035 28.1871C46.1346 32.2792 54.1091 33.3692 68 34.0006C54.0849 34.8124 46.0215 35.9152 41.2447 39.9844C43.0766 42.8721 46.1981 46.2082 50.6395 50.6408C46.1307 46.3543 42.7311 43.2685 39.8129 41.4035C35.7208 46.1346 34.6308 54.1091 33.9994 68C33.1876 54.0849 32.0848 46.0215 28.0156 41.2447C25.1279 43.0766 21.7918 46.1981 17.3592 50.6395C21.6457 46.1307 24.7315 42.7311 26.5965 39.8129C21.8654 35.7208 13.8909 34.6308 0 33.9994C13.9151 33.1876 21.9785 32.0848 26.7553 28.0156C24.9234 25.1279 21.8019 21.7918 17.3605 17.3592C21.8693 21.6457 25.2689 24.7328 28.1871 26.5965C32.2792 21.8654 33.3692 13.8909 34.0006 0Z" fill="#7FC6E8"/>
</svg>
