<svg width="223" height="223" viewBox="0 0 223 223" fill="none" xmlns="http://www.w3.org/2000/svg">
<path d="M111.5 223C173.08 223 223 173.08 223 111.5C223 49.9202 173.08 0 111.5 0C49.9202 0 0 49.9202 0 111.5C0 173.08 49.9202 223 111.5 223Z" fill="#C4E8E5"/>
<path d="M151.617 187.751C148.609 185.771 155.894 167.978 162.463 156.211C167.858 146.548 174.205 138.377 176.038 139.321C177.441 140.044 175.683 145.841 176.956 146.303C178.661 146.922 182.247 136.672 185.733 137.016C187.881 137.228 189.737 141.437 189.807 145.306C189.932 152.286 184.22 156.909 171.795 169.032C155.872 184.567 153.165 188.769 151.617 187.751H151.617Z" fill="url(#paint0_linear_2003_296)"/>
<g opacity="0.3" style="mix-blend-mode:soft-light">
<path d="M156.743 176.252C158.418 171.232 158.274 168.03 161.32 164.785C163.982 161.949 165.625 162.759 168.764 159.483C172.319 155.771 171.076 153.828 174.053 150.954C178.187 146.964 182.164 149.182 185.67 145.595C186.779 144.461 187.921 142.663 188.479 139.649C189.259 141.23 189.771 143.313 189.807 145.307C189.932 152.287 184.22 156.909 171.795 169.033C155.872 184.568 153.165 188.77 151.617 187.751C151.382 187.597 151.21 187.345 151.095 187.007C154.113 182.903 155.769 179.174 156.744 176.253L156.743 176.252Z" fill="white"/>
</g>
<path d="M145.863 196.857C152.287 182.501 159.568 172.237 165.031 165.55C177.323 150.505 183.306 150.031 185.931 150.231C189.429 150.498 193.921 152.495 194.613 155.846C195.905 162.116 183.32 170.351 184.694 172.719C185.405 173.944 188.882 171.923 190.286 173.527C192.205 175.721 188.482 182.676 187.481 184.353C179.74 197.315 154.123 197.151 145.864 196.857H145.863Z" fill="url(#paint1_linear_2003_296)"/>
<g opacity="0.5" style="mix-blend-mode:soft-light">
<path d="M158.25 185.883C164.012 182.188 165.734 182.558 168.828 179.14C174.534 172.836 172.444 167.417 177.731 163.378C181.501 160.498 183.693 162.389 188.984 159.344C191.137 158.105 192.902 156.566 194.34 154.986C194.458 155.262 194.551 155.548 194.613 155.846C195.905 162.116 183.32 170.351 184.694 172.719C185.405 173.944 188.882 171.923 190.286 173.527C192.205 175.721 188.482 182.676 187.48 184.353C179.74 197.315 154.122 197.151 145.864 196.857C145.981 196.595 146.099 196.338 146.217 196.078C150.821 191.096 155.073 187.921 158.25 185.883H158.25Z" fill="white"/>
</g>
<path d="M101.871 109.18C98.9458 109.935 95.6453 109.005 93.5657 106.591L64.2414 72.5399C61.5717 69.4393 61.9268 64.8246 65.0482 62.2069C68.1917 59.5716 74.3915 59.4331 77.1125 62.559L107.002 96.8983C109.819 100.136 109.374 104.831 106.023 107.36C105.197 107.983 102.836 108.93 101.871 109.179V109.18Z" fill="url(#paint2_linear_2003_296)"/>
<path opacity="0.3" d="M65.049 62.2069C68.1925 59.5716 74.3923 59.4331 77.1133 62.559L104.442 93.9568C101.648 94.1382 98.6174 95.1968 94.8486 93.5879C88.5745 90.9097 89.1792 84.6472 83.718 81.0337C81.222 79.3819 77.1853 78.1037 70.302 79.5756L64.243 72.5399C61.5732 69.4393 61.9284 64.8246 65.0497 62.2069H65.049Z" fill="url(#paint3_linear_2003_296)" style="mix-blend-mode:multiply"/>
<path d="M52.6056 57.6191C52.7465 57.5732 52.8904 57.538 53.035 57.5112L63.1453 54.0776L71.7845 80.4596L61.9428 83.5335C61.7117 83.6797 61.4668 83.7976 61.2065 83.8825C57.7293 85.0215 52.9845 80.0654 50.6102 72.8124C48.2352 65.5602 49.1292 58.7573 52.6064 57.6191H52.6056Z" fill="url(#paint4_linear_2003_296)"/>
<path d="M63.1454 54.0776C62.1786 64.1213 65.0451 72.8745 71.7845 80.4597L155.206 80.0111L131.737 5.70995L63.1454 54.0776Z" fill="url(#paint5_linear_2003_296)"/>
<path opacity="0.3" d="M127.703 64.9173C119.636 64.5483 113.998 54.8675 105.551 57.2456C98.9236 59.1116 99.033 66.1036 92.4038 67.5166C85.6177 68.9632 82.2017 62.2544 74.0425 62.1672C70.3325 62.1273 66.9089 63.4806 63.8327 65.5487C65.0956 70.9441 67.7386 75.907 71.7837 80.4604L155.205 80.0119L142.507 56.3332C136.487 63.1109 131.614 65.0971 127.704 64.9188L127.703 64.9173Z" fill="url(#paint6_linear_2003_296)" style="mix-blend-mode:multiply"/>
<path d="M159.182 79.7905C169.322 76.4706 171.928 56.6362 165.004 35.4892C158.08 14.3422 144.247 -0.109415 134.108 3.21053C123.968 6.53048 121.362 26.3648 128.286 47.5118C135.21 68.6588 149.043 83.1105 159.182 79.7905Z" fill="url(#paint7_linear_2003_296)"/>
<path d="M158.758 78.4879C160.91 77.783 162.73 76.1871 164.165 73.7455C165.627 71.2602 166.626 68.0294 167.137 64.1434C168.211 55.975 166.992 45.9482 163.705 35.9114C160.419 25.8746 155.471 17.0693 149.774 11.1175C147.064 8.28628 144.347 6.27326 141.698 5.1328C139.096 4.01301 136.685 3.80252 134.533 4.50746C132.38 5.2124 130.56 6.80828 129.125 9.24993C127.664 11.7352 126.664 14.966 126.153 18.852C125.704 22.2672 125.656 26.0078 125.992 29.9381C126.46 35.407 131.649 39.5777 133.562 45.4177C135.596 51.6282 134.289 59.0328 137.378 63.9161C139.281 66.9249 141.345 69.6092 143.517 71.8786C146.227 74.7099 148.945 76.7229 151.593 77.8634C154.195 78.9832 156.606 79.1936 158.759 78.4887L158.758 78.4879Z" fill="url(#paint8_linear_2003_296)"/>
<mask id="mask0_2003_296" style="mask-type:luminance" maskUnits="userSpaceOnUse" x="125" y="4" width="43" height="75">
<path d="M158.758 78.4879C160.91 77.783 162.73 76.1871 164.165 73.7455C165.627 71.2602 166.626 68.0294 167.137 64.1434C168.211 55.975 166.992 45.9482 163.705 35.9114C160.419 25.8746 155.471 17.0693 149.774 11.1175C147.064 8.28628 144.347 6.27326 141.698 5.1328C139.096 4.01301 136.685 3.80252 134.533 4.50746C132.38 5.2124 130.56 6.80828 129.125 9.24993C127.664 11.7352 126.664 14.966 126.153 18.852C125.08 27.0204 126.298 37.0472 129.585 47.084C132.872 57.1208 137.819 65.9261 143.516 71.8779C146.227 74.7091 148.944 76.7221 151.592 77.8626C154.194 78.9824 156.605 79.1929 158.758 78.4879Z" fill="white"/>
</mask>
<g mask="url(#mask0_2003_296)">
<path d="M148.321 41.505C151.497 51.2058 147.596 61.0114 139.72 63.3734C131.965 65.6988 123.263 59.9123 120.175 50.4809C117.087 41.0503 120.712 31.332 128.379 28.7395C136.166 26.1058 145.144 31.8042 148.321 41.505Z" fill="url(#paint9_linear_2003_296)"/>
<path opacity="0.3" d="M147.035 41.7514C149.394 48.9547 148.137 55.6995 144.282 56.8001C140.488 57.8839 135.596 53.0726 133.303 46.0699C131.009 39.0672 132.132 32.3645 135.861 31.0824C139.649 29.7797 144.676 34.5482 147.034 41.7522L147.035 41.7514Z" fill="url(#paint10_linear_2003_296)" style="mix-blend-mode:multiply"/>
</g>
<path opacity="0.3" d="M152.72 40.337L176.719 33.5516C178.675 32.9983 180.698 33.8111 181.21 35.3748C181.722 36.9386 180.518 38.6263 178.548 39.1384L154.384 45.4201C152.776 45.838 151.12 45.0488 150.665 43.6619C150.211 42.275 151.122 40.7886 152.72 40.337H152.72Z" fill="url(#paint11_linear_2003_296)"/>
<path d="M147.121 26.4838L174.442 17.0311C176.732 16.2389 179.156 17.2224 179.817 19.2423C180.479 21.2615 179.108 23.4957 176.795 24.2198L149.209 32.8597C147.421 33.4192 145.535 32.4601 144.966 30.7257C144.398 28.9913 145.351 27.0962 147.121 26.4838Z" fill="url(#paint12_linear_2003_296)"/>
<path d="M159.785 34.1754L182.431 27.5179C184.273 26.9768 186.188 27.7636 186.685 29.2822C187.183 30.8008 186.063 32.4449 184.209 32.9477L161.407 39.1284C159.885 39.5409 158.307 38.7755 157.865 37.4238C157.422 36.0721 158.274 34.6201 159.786 34.1762L159.785 34.1754Z" fill="url(#paint13_linear_2003_296)"/>
<path d="M180.877 18.8505C181.542 20.8788 183.88 21.9611 186.14 21.2554C188.445 20.5359 189.789 18.2389 189.101 16.1379C188.413 14.0368 185.973 12.9874 183.693 13.7804C181.457 14.5581 180.214 16.8221 180.878 18.8497L180.877 18.8505Z" fill="url(#paint14_linear_2003_296)"/>
<path d="M153.124 47.4982L182.126 40.4197C184.561 39.8249 187.115 40.9983 187.787 43.0496C188.459 45.1009 186.975 47.1966 184.517 47.7209L155.241 53.962C153.348 54.3654 151.37 53.2624 150.795 51.5043C150.219 49.7462 151.249 47.9559 153.124 47.4982H153.124Z" fill="url(#paint15_linear_2003_296)"/>
<path d="M180.115 44.8337C180.619 46.3737 182.524 47.2976 184.393 46.8927C186.29 46.4817 187.429 44.8621 186.912 43.2807C186.394 41.6994 184.427 40.7893 182.543 41.2424C180.687 41.6887 179.611 43.2937 180.115 44.8337Z" fill="#C7FAF4"/>
<path d="M216.871 197.361L8.34671 195.545V200.919C8.34671 202.377 9.25601 203.618 10.4883 203.839L69.453 214.42C70.1526 214.546 70.8622 214.58 71.5686 214.52L214.606 202.456C215.882 202.348 216.872 201.104 216.872 199.605V197.362L216.871 197.361Z" fill="url(#paint16_linear_2003_296)"/>
<path d="M149.744 188.65L10.6415 198.48C8.15237 198.656 6.12863 196.787 6.12863 194.305V94.8631C6.12863 92.3808 8.15237 90.3686 10.6415 90.3686H149.744C151.795 90.3686 153.453 92.1872 153.453 94.4314V184.325C153.453 186.569 151.795 188.505 149.744 188.65Z" fill="url(#paint17_linear_2003_296)"/>
<path d="M151.963 188.65L12.8596 198.48C10.3704 198.656 8.34671 196.787 8.34671 194.305V94.8631C8.34671 92.3808 10.3704 90.3686 12.8596 90.3686H151.963C154.013 90.3686 155.671 92.1872 155.671 94.4314V184.325C155.671 186.569 154.013 188.505 151.963 188.65Z" fill="url(#paint18_linear_2003_296)"/>
<path d="M147.629 182.312L18.0689 190.851C16.0437 190.984 14.3973 189.451 14.3973 187.425V100.363C14.3973 98.3373 16.0437 96.6878 18.0689 96.6794L147.629 96.1436C149.32 96.1367 150.689 97.627 150.689 99.4723V178.77C150.689 180.616 149.32 182.202 147.629 182.313V182.312Z" fill="white"/>
<path d="M87.3239 93.0888C87.3239 94.0127 86.6082 94.7643 85.7242 94.7666C84.8386 94.7697 84.1206 94.0211 84.1206 93.095C84.1206 92.1688 84.8394 91.4179 85.7242 91.4172C86.6082 91.4172 87.3239 92.165 87.3239 93.0888Z" fill="white"/>
<path d="M148.491 188.204L8.34671 198.551L69.4523 209.517C70.1519 209.643 70.8614 209.677 71.5679 209.617L216.871 197.361L150.721 188.275C149.981 188.173 149.235 188.149 148.491 188.205V188.204Z" fill="url(#paint19_linear_2003_296)"/>
<path opacity="0.3" d="M28.7962 198.812L145.47 190.069L181.581 194.989L65.9108 204.335L28.7962 198.812Z" fill="url(#paint20_linear_2003_296)" style="mix-blend-mode:multiply"/>
<path d="M150.705 112.976L14.382 114.67V99.2695C14.382 97.5428 15.782 96.1429 17.5087 96.1429H147.578C149.305 96.1429 150.705 97.5428 150.705 99.2695V112.976V112.976Z" fill="url(#paint21_linear_2003_296)"/>
<path d="M99.8482 154.233L22.7739 157.418V121.01L99.8482 119.717V154.233Z" fill="#D8E8E8"/>
<path d="M143.701 152.421L104.394 154.045V119.642L143.701 118.983V152.421Z" fill="#D8E8E8"/>
<path d="M143.701 177.242L22.7739 184.443V162.172L143.701 156.788V177.242Z" fill="#D8E8E8"/>
<path d="M24.1555 104.749C24.1555 105.718 23.3112 106.51 22.2688 106.518C21.2247 106.526 20.3774 105.743 20.3774 104.772C20.3774 103.801 21.2247 103.009 22.2688 103.003C23.3112 102.999 24.1555 103.78 24.1555 104.75V104.749Z" fill="url(#paint22_linear_2003_296)"/>
<path d="M30.9791 104.709C30.9791 105.657 30.1425 106.431 29.11 106.438C28.0751 106.444 27.2355 105.681 27.2355 104.731C27.2355 103.781 28.0751 103.007 29.11 103.002C30.1433 102.998 30.9791 103.762 30.9791 104.709Z" fill="url(#paint23_linear_2003_296)"/>
<path d="M37.74 104.67C37.74 105.613 36.9111 106.384 35.8877 106.391C34.8628 106.398 34.0308 105.638 34.0308 104.692C34.0308 103.746 34.8628 102.976 35.8877 102.971C36.9111 102.966 37.74 103.727 37.74 104.67Z" fill="url(#paint24_linear_2003_296)"/>
<g opacity="0.48" style="mix-blend-mode:soft-light">
<path d="M118.448 161.376C107.724 155.607 99.2925 162.918 91.1546 155.704C86.2208 151.33 88.6433 148.07 82.5729 141.534C75.8496 134.295 71.4722 136.729 64.7152 130.214C56.1717 121.977 60.4442 115.568 53.0848 109.654C44.1571 102.479 34.5282 109.12 26.0299 102.239C22.3644 99.2718 20.3529 94.9572 19.3028 90.3686H10.9874C9.53003 90.3686 8.34671 91.5496 8.34671 93.0069V196.087C8.34671 197.544 9.53003 198.642 10.9874 198.538L152.756 188.475C153.452 188.426 154.069 188.02 154.465 187.431C144.086 187.053 137.711 183.574 133.636 179.977C125.663 172.942 127.045 166.003 118.448 161.378L118.448 161.376Z" fill="white"/>
</g>
<path d="M206.97 110.095L191.453 135.482L144.116 134.948L123.122 175.565L68.9211 177.462L40.797 220.799C40.2964 221.571 39.4667 222.068 38.5497 222.146L34.8773 222.456C33.2103 222.718 29.6496 222.211 30.193 220.613L49.2425 177.516L64.9081 170.507L117.603 168.492L137.541 128.56L185.963 128.026L202.192 103.374L206.97 110.095Z" fill="url(#paint25_linear_2003_296)"/>
<path d="M178.106 111.802L169.405 107.802L179.101 105.827L178.106 111.802Z" fill="url(#paint26_linear_2003_296)"/>
<path d="M211.252 103.374L215.804 110.095H205.703L202.29 105.827L211.252 103.374Z" fill="url(#paint27_linear_2003_296)"/>
<path d="M216.871 80.0754L212.651 76.9487L210.825 102.271L212.651 105.525L215.804 110.095L216.871 80.0754Z" fill="url(#paint28_linear_2003_296)"/>
<path d="M98.286 165.565L120.141 171.536L141.136 130.919L119.28 124.947L98.286 165.565Z" fill="url(#paint29_linear_2003_296)"/>
<path d="M14.5052 217.741L30.8666 222.212C32.5964 222.685 34.4334 221.984 35.41 220.48L65.9406 173.433L44.0852 167.461L13.377 214.781C12.6537 215.895 13.2239 217.391 14.5052 217.741Z" fill="url(#paint30_linear_2003_296)"/>
<path d="M44.0852 167.461L65.9406 173.433L120.141 171.536L98.286 165.565L44.0852 167.461Z" fill="url(#paint31_linear_2003_296)"/>
<path d="M119.28 124.947L141.136 130.919L188.472 131.453L166.617 125.481L119.28 124.947Z" fill="url(#paint32_linear_2003_296)"/>
<path d="M169.405 107.802L177.689 107.365L166.617 125.481L188.472 131.453L204.042 105.978L212.651 105.525V76.9487L169.405 107.802Z" fill="url(#paint33_linear_2003_296)"/>
<g style="mix-blend-mode:multiply" opacity="0.3">
<path d="M105.914 164.092C112.195 159.05 117.893 162.118 121.91 157.998C125.345 154.475 121.79 151.604 125.719 142.915C128.918 135.84 133.61 132.582 134.555 131.946C135.767 131.132 136.934 130.523 137.982 130.057L119.28 124.947L98.2852 165.565L103.16 166.896C103.883 165.969 104.786 164.997 105.913 164.092H105.914Z" fill="url(#paint34_linear_2003_296)"/>
</g>
<path opacity="0.3" d="M143.848 126.004C139.851 126.277 139.134 126.429 139.126 126.614C139.1 127.174 145.518 128.272 152.076 128.442C157.911 128.594 158.931 127.884 165.178 128.29C169.243 128.554 171.967 129.059 172.034 128.747C172.114 128.372 168.334 126.991 164.264 126.157C158.722 125.021 153.688 125.333 143.849 126.004H143.848Z" fill="url(#paint35_linear_2003_296)" style="mix-blend-mode:multiply"/>
<path opacity="0.3" d="M32.7862 197.456C36.167 191.942 37.4139 186.322 43.2983 183.592C47.8051 181.501 50.8705 183.036 54.8767 180.393C57.9957 178.335 59.6857 175.063 60.6448 171.986L44.0852 167.461L14.594 212.905C24.7755 207.968 29.9359 202.105 32.7862 197.456Z" fill="url(#paint36_linear_2003_296)" style="mix-blend-mode:multiply"/>
<path d="M84.8608 132.994C86.7138 132.453 89.1907 135.856 91.2504 138.685C94.3312 142.918 97.9301 147.862 96.9603 153.8C96.0066 159.642 90.9978 164.192 89.5711 163.541C88.3503 162.984 90.6978 159.055 88.8991 153.8C87.4478 149.56 85.0437 149.558 83.4318 145.401C81.431 140.241 82.5806 133.66 84.8608 132.994Z" fill="url(#paint37_linear_2003_296)"/>
<path d="M85.7777 159.902C95.3231 162.22 101.611 165.94 105.283 168.571C107.273 169.997 108.192 170.886 108.688 172.183C111.515 179.572 96.9879 190.743 95.4403 191.912C94.7636 190.335 94.0878 188.759 93.4119 187.182C94.9129 178.942 97.4119 176.358 99.5038 175.589C100.089 175.374 101.071 175.144 101.052 174.867C101.007 174.212 95.4892 175.145 90.2163 173.216C84.958 171.291 79.6752 166.423 80.6189 163.205C80.7911 162.617 81.5121 160.919 85.7793 159.902H85.7777Z" fill="url(#paint38_linear_2003_296)"/>
<path d="M95.0338 213.905C95.0338 213.905 94.1451 214.222 94.1421 214.925C94.139 215.628 95.0422 218.723 96.0234 219.823C97.0047 220.923 97.0927 219.282 97.0315 218.225C96.971 217.168 96.7138 214.802 96.4712 214.344C96.2286 213.886 95.0338 213.905 95.0338 213.905Z" fill="url(#paint39_linear_2003_296)"/>
<path opacity="0.3" d="M97.8872 170.704C99.6216 170.671 103.685 170.347 104.767 172.355C105.67 174.031 104.089 176.572 103.116 178.135C100.473 182.383 97.9064 182.818 96.0985 185.428C95.3989 186.438 94.7651 187.849 94.5631 189.865C94.1796 188.971 93.7961 188.077 93.4127 187.182C94.9136 178.942 97.4127 176.358 99.5045 175.589C100.089 175.374 101.071 175.144 101.053 174.867C101.008 174.212 95.49 175.145 90.2171 173.216C85.4241 171.462 80.6265 167.265 80.527 164.098C88.1168 169.542 93.8298 170.784 97.8888 170.704H97.8872Z" fill="url(#paint40_linear_2003_296)" style="mix-blend-mode:multiply"/>
<path d="M94.5202 210.919C94.5723 212.003 94.6649 212.908 94.7475 213.58C94.9312 215.067 95.0996 215.656 95.33 216.192C95.5313 216.659 96.0349 217.679 96.2753 217.608C96.5194 217.536 96.2684 216.407 96.0778 213.267C96.0503 212.812 95.9661 211.36 95.9661 211.36L94.5194 210.919L94.5202 210.919Z" fill="url(#paint41_linear_2003_296)"/>
<path d="M80.2736 160.522C85.773 163.838 89.3437 167.608 91.4195 170.154C93.8695 173.16 97.5971 177.732 98.9465 184.548C99.666 188.182 99.3116 191.441 98.5745 197.812C97.842 204.139 96.7926 209.29 95.9713 212.809C95.5481 212.979 95.1256 213.148 94.7031 213.318C93.5703 211.236 92.0884 207.941 91.5572 203.729C90.6885 196.835 93.2664 194.645 92.0287 189.757C90.9564 185.523 87.8496 182.926 81.6368 177.733C76.5323 173.467 71.825 170.935 70.0776 165.614C69.7806 164.71 69.5288 163.601 70.0125 162.586C71.055 160.399 75.0436 159.636 80.2736 160.522Z" fill="url(#paint42_linear_2003_296)"/>
<path d="M75.8833 133.388C77.3108 133.081 79.6583 133.143 81.8963 131.38C82.5699 130.849 84.9572 128.97 84.6671 126.28C84.4122 123.913 82.168 122.64 81.8925 122.488C80.3035 121.614 78.7199 121.808 76.964 122.048C74.6862 122.36 73.93 122.982 72.3471 123.408C68.432 124.464 67.1079 122.261 63.1653 122.447C58.1266 122.684 57.6911 126.405 53.4515 126.498C48.6922 126.602 47.7806 121.945 43.0817 121.156C36.5597 120.06 26.692 127.081 26.8911 135.175C27.0059 139.849 30.4869 145.207 34.9324 146.815C37.5241 147.753 40.3201 147.455 41.1185 149.14C41.6864 150.34 40.4097 151.264 40.5299 153.353C40.6852 156.047 43.0044 157.938 43.3787 158.243C46.8552 161.077 54.6509 159.645 59.9735 155.635C69.5725 148.404 68.1197 135.058 75.8817 133.388L75.8833 133.388Z" fill="url(#paint43_linear_2003_296)"/>
<path d="M64.8575 132.428C68.0906 132.03 71.8197 131.726 75.9636 131.67C84.7199 131.551 85.9728 132.661 86.2936 133.483C86.8913 135.016 85.8672 135.783 86.4489 138.455C86.7964 140.052 86.4681 140.78 87.1401 142.496C87.7953 144.168 87.2817 145.068 86.7023 148.99C85.9614 154.005 85.62 156.553 87.023 158.576C87.9981 159.98 89.0888 160.1 88.9855 160.767C88.7643 162.188 83.8488 161.405 77.6253 164.134C75.8235 164.924 74.1657 165.897 72.7749 166.714C69.5189 168.626 68.9165 169.357 67.4086 170.223C62.6402 172.962 55.4767 173.226 51.7224 169.914C50.3224 168.678 49.3022 166.863 49.7614 166.198C50.3867 165.294 53.182 167.349 55.7469 166.095C57.4461 165.264 57.1231 163.92 59.0879 162.338C61.4522 160.432 63.0963 161.431 64.7052 160.191C67.2158 158.256 66.0738 153.626 65.3688 145.863C65.0772 142.649 64.7848 138.06 64.8575 132.428Z" fill="url(#paint44_linear_2003_296)"/>
<path d="M74.3333 130.624C73.1392 131.365 71.2089 132.333 70.9961 132.595C70.7833 132.858 76.8446 133.896 80.6157 131.992C80.6157 131.992 81.2005 131.668 78.9273 131.213C78.4428 131.116 78.5377 130.174 78.6027 129.199L78.1481 128.355C78.1481 128.355 75.5281 129.882 74.334 130.623L74.3333 130.624Z" fill="url(#paint45_linear_2003_296)"/>
<path d="M77.346 127.782C77.346 127.782 76.8776 129.769 78.6281 130.751C80.1949 131.631 82.8462 128.026 82.351 126.686C82.1857 126.239 81.5955 125.665 80.9786 125.471C80.5446 125.335 78.9036 125.387 78.2002 126.769C78.0157 126.365 77.6866 126.153 77.4646 126.219C77.1837 126.304 77.1424 126.815 77.1325 126.931C77.0995 127.333 77.2618 127.645 77.3445 127.782H77.346Z" fill="url(#paint46_linear_2003_296)"/>
<path opacity="0.3" d="M80.0601 159.64C78.2568 160.387 78.0134 162.002 75.5205 162.919C73.1424 163.793 72.3441 162.697 69.9721 163.423C66.4091 164.513 65.0467 167.95 64.5078 167.627C64.0134 167.33 64.4879 164.041 66.778 161.91C69.408 159.463 72.2407 160.583 73.9239 158.043C74.5791 157.054 75.0835 155.475 74.5125 154.26C73.7386 152.612 71.7164 153.183 70.6456 151.822C68.7206 149.375 73.225 144.961 71.9904 141.229C71.4975 139.741 69.9292 137.874 64.8699 136.625C64.9387 140.364 65.1538 143.49 65.3697 145.864C66.0746 153.627 67.2166 158.257 64.7061 160.191C63.0964 161.431 61.4531 160.433 59.0887 162.338C57.1239 163.921 57.4469 165.265 55.7477 166.096C53.1829 167.35 50.3868 165.294 49.7622 166.199C49.303 166.863 50.3233 168.679 51.7232 169.914C55.4775 173.227 62.641 172.963 67.4095 170.224C68.9173 169.358 69.5197 168.627 72.7758 166.716C74.1665 165.899 75.8244 164.925 77.6261 164.136C81.9936 162.221 85.7142 162.035 87.6231 161.604C83.8336 159.076 81.5244 159.035 80.0609 159.641L80.0601 159.64Z" fill="url(#paint47_linear_2003_296)" style="mix-blend-mode:multiply"/>
<path d="M97.4632 162.176L74.5875 163.289C74.2729 163.304 73.9851 163.473 73.819 163.741L73.186 164.756C72.8707 165.262 73.2495 165.914 73.845 165.891L98.0755 164.968L97.4632 162.175V162.176Z" fill="url(#paint48_linear_2003_296)"/>
<path d="M118.464 149.538L94.8309 149.996C94.1314 150.01 93.4915 150.39 93.1455 150.999L84.9618 165.398L109.921 164.403C110.606 164.376 111.231 164.005 111.583 163.417L119.166 150.749C119.489 150.21 119.092 149.526 118.464 149.538Z" fill="url(#paint49_linear_2003_296)"/>
<path opacity="0.3" d="M93.1448 150.999C93.4908 150.391 94.1307 150.01 94.8303 149.996L95.3484 149.986C95.4257 150.749 95.66 151.447 96.1269 152.011C97.5842 153.77 100.005 152.685 101.81 154.546C103.792 156.591 101.961 159.026 103.733 160.928C105.599 162.932 108.615 161.3 112.083 162.582L111.584 163.417C111.232 164.005 110.607 164.376 109.922 164.403L84.9626 165.398L93.1464 150.999H93.1448Z" fill="url(#paint50_linear_2003_296)" style="mix-blend-mode:multiply"/>
<path d="M78.3349 162.188C78.5928 161.508 78.8508 160.828 79.108 160.146C76.2591 159.366 72.3188 158.211 68.2774 156.767C67.2786 156.41 66.9135 155.949 66.6464 155.594C64.5744 152.847 69.8473 147.999 69.7531 141.708C69.6881 137.348 67.0444 132.36 64.7145 132.303C59.9797 132.188 49.5395 152.279 58.3325 160.854C62.6968 165.109 70.85 165.604 78.3349 162.188V162.188Z" fill="url(#paint51_linear_2003_296)"/>
<path d="M79.1087 160.145C80.8975 159.196 83.0383 160.169 83.1761 160.234C83.5695 160.419 84.1413 160.75 84.7191 161.34C84.7842 161.429 85.5603 162.504 85.2779 162.849C85.0513 163.125 84.1742 162.896 83.1194 162.24C82.6778 162.178 82.0196 162.122 81.2312 162.194C79.7838 162.328 79.1202 162.785 78.5951 162.39C78.2101 162.102 78.0792 161.49 78.2178 161.036C78.3663 160.548 78.8064 160.306 79.1095 160.145H79.1087Z" fill="url(#paint52_linear_2003_296)"/>
<defs>
<linearGradient id="paint0_linear_2003_296" x1="179.542" y1="134.891" x2="161.117" y2="208.762" gradientUnits="userSpaceOnUse">
<stop stop-color="#8180F9"/>
<stop offset="1" stop-color="#6198D7"/>
</linearGradient>
<linearGradient id="paint1_linear_2003_296" x1="171.829" y1="181.927" x2="216.253" y2="140.357" gradientUnits="userSpaceOnUse">
<stop stop-color="#BB8DE3"/>
<stop offset="1" stop-color="#717AF6"/>
</linearGradient>
<linearGradient id="paint2_linear_2003_296" x1="92.4202" y1="68.1085" x2="78.7997" y2="101.542" gradientUnits="userSpaceOnUse">
<stop stop-color="#FF9F44"/>
<stop offset="1" stop-color="#F35674"/>
</linearGradient>
<linearGradient id="paint3_linear_2003_296" x1="88.9286" y1="66.6858" x2="75.3081" y2="100.12" gradientUnits="userSpaceOnUse">
<stop stop-color="#FF9F44"/>
<stop offset="1" stop-color="#F35674"/>
</linearGradient>
<linearGradient id="paint4_linear_2003_296" x1="49.0976" y1="61.7294" x2="73.9237" y2="76.9868" gradientUnits="userSpaceOnUse">
<stop stop-color="#BB8DE3"/>
<stop offset="1" stop-color="#717AF6"/>
</linearGradient>
<linearGradient id="paint5_linear_2003_296" x1="86.945" y1="16.7389" x2="144.507" y2="123.296" gradientUnits="userSpaceOnUse">
<stop stop-color="#8180F9"/>
<stop offset="1" stop-color="#6198D7"/>
</linearGradient>
<linearGradient id="paint6_linear_2003_296" x1="80.0051" y1="19.2384" x2="138.286" y2="127.125" gradientUnits="userSpaceOnUse">
<stop stop-color="#8180F9"/>
<stop offset="1" stop-color="#6198D7"/>
</linearGradient>
<linearGradient id="paint7_linear_2003_296" x1="118.381" y1="24.1302" x2="174.922" y2="58.8794" gradientUnits="userSpaceOnUse">
<stop stop-color="#BB8DE3"/>
<stop offset="1" stop-color="#717AF6"/>
</linearGradient>
<linearGradient id="paint8_linear_2003_296" x1="123.206" y1="48.5268" x2="162.856" y2="36.6534" gradientUnits="userSpaceOnUse">
<stop stop-color="#221944"/>
<stop offset="1" stop-color="#6E3989"/>
</linearGradient>
<linearGradient id="paint9_linear_2003_296" x1="115.528" y1="11.3417" x2="153.112" y2="80.9151" gradientUnits="userSpaceOnUse">
<stop stop-color="#FF9F44"/>
<stop offset="1" stop-color="#F35674"/>
</linearGradient>
<linearGradient id="paint10_linear_2003_296" x1="126.357" y1="18.3441" x2="154.088" y2="69.6785" gradientUnits="userSpaceOnUse">
<stop stop-color="#FF9F44"/>
<stop offset="1" stop-color="#F35674"/>
</linearGradient>
<linearGradient id="paint11_linear_2003_296" x1="172.037" y1="29.1467" x2="150.468" y2="65.8925" gradientUnits="userSpaceOnUse">
<stop stop-color="#BB8DE3"/>
<stop offset="1" stop-color="#717AF6"/>
</linearGradient>
<linearGradient id="paint12_linear_2003_296" x1="178.209" y1="8.95464" x2="157.438" y2="30.1118" gradientUnits="userSpaceOnUse">
<stop stop-color="#FF85B0"/>
<stop offset="1" stop-color="#EB6FFB"/>
</linearGradient>
<linearGradient id="paint13_linear_2003_296" x1="178.115" y1="23.422" x2="157.462" y2="58.6066" gradientUnits="userSpaceOnUse">
<stop stop-color="#BB8DE3"/>
<stop offset="1" stop-color="#717AF6"/>
</linearGradient>
<linearGradient id="paint14_linear_2003_296" x1="186.52" y1="15.9367" x2="163.589" y2="39.2942" gradientUnits="userSpaceOnUse">
<stop stop-color="#FF85B0"/>
<stop offset="1" stop-color="#EB6FFB"/>
</linearGradient>
<linearGradient id="paint15_linear_2003_296" x1="176.402" y1="35.1965" x2="151.285" y2="77.988" gradientUnits="userSpaceOnUse">
<stop stop-color="#8180F9"/>
<stop offset="1" stop-color="#6198D7"/>
</linearGradient>
<linearGradient id="paint16_linear_2003_296" x1="96.4268" y1="205.376" x2="81.7784" y2="211.529" gradientUnits="userSpaceOnUse">
<stop stop-color="#40617E"/>
<stop offset="1" stop-color="#3B4D6B"/>
</linearGradient>
<linearGradient id="paint17_linear_2003_296" x1="76.8669" y1="140.816" x2="60.9693" y2="147.492" gradientUnits="userSpaceOnUse">
<stop stop-color="#40617E"/>
<stop offset="1" stop-color="#3B4D6B"/>
</linearGradient>
<linearGradient id="paint18_linear_2003_296" x1="8.34671" y1="144.43" x2="155.671" y2="144.43" gradientUnits="userSpaceOnUse">
<stop stop-color="#40617E"/>
<stop offset="1" stop-color="#3B4D6B"/>
</linearGradient>
<linearGradient id="paint19_linear_2003_296" x1="8.34671" y1="198.91" x2="216.871" y2="198.91" gradientUnits="userSpaceOnUse">
<stop stop-color="#40617E"/>
<stop offset="1" stop-color="#3B4D6B"/>
</linearGradient>
<linearGradient id="paint20_linear_2003_296" x1="28.7962" y1="197.202" x2="181.581" y2="197.202" gradientUnits="userSpaceOnUse">
<stop stop-color="#40617E"/>
<stop offset="1" stop-color="#3B4D6B"/>
</linearGradient>
<linearGradient id="paint21_linear_2003_296" x1="117.066" y1="68.4665" x2="38.8559" y2="152.38" gradientUnits="userSpaceOnUse">
<stop stop-color="#8180F9"/>
<stop offset="1" stop-color="#6198D7"/>
</linearGradient>
<linearGradient id="paint22_linear_2003_296" x1="20.3774" y1="104.76" x2="24.1555" y2="104.76" gradientUnits="userSpaceOnUse">
<stop stop-color="#446E8C"/>
<stop offset="1" stop-color="#26374F"/>
</linearGradient>
<linearGradient id="paint23_linear_2003_296" x1="27.2355" y1="104.72" x2="30.9791" y2="104.72" gradientUnits="userSpaceOnUse">
<stop stop-color="#446E8C"/>
<stop offset="1" stop-color="#26374F"/>
</linearGradient>
<linearGradient id="paint24_linear_2003_296" x1="34.0308" y1="104.681" x2="37.74" y2="104.681" gradientUnits="userSpaceOnUse">
<stop stop-color="#446E8C"/>
<stop offset="1" stop-color="#26374F"/>
</linearGradient>
<linearGradient id="paint25_linear_2003_296" x1="141.715" y1="120.84" x2="76.53" y2="230.84" gradientUnits="userSpaceOnUse">
<stop stop-color="#A331AB"/>
<stop offset="1" stop-color="#792D69"/>
</linearGradient>
<linearGradient id="paint26_linear_2003_296" x1="167.006" y1="121.276" x2="169.036" y2="117.823" gradientUnits="userSpaceOnUse">
<stop stop-color="#A331AB"/>
<stop offset="1" stop-color="#792D69"/>
</linearGradient>
<linearGradient id="paint27_linear_2003_296" x1="211.874" y1="83.4539" x2="209.437" y2="104.579" gradientUnits="userSpaceOnUse">
<stop stop-color="#A331AB"/>
<stop offset="1" stop-color="#792D69"/>
</linearGradient>
<linearGradient id="paint28_linear_2003_296" x1="212.993" y1="102.572" x2="217.869" y2="66.8216" gradientUnits="userSpaceOnUse">
<stop stop-color="#A331AB"/>
<stop offset="1" stop-color="#792D69"/>
</linearGradient>
<linearGradient id="paint29_linear_2003_296" x1="131.879" y1="125.881" x2="108.112" y2="169.555" gradientUnits="userSpaceOnUse">
<stop stop-color="#FF85B0"/>
<stop offset="1" stop-color="#EB6FFB"/>
</linearGradient>
<linearGradient id="paint30_linear_2003_296" x1="58.1955" y1="165.481" x2="13.8945" y2="233.893" gradientUnits="userSpaceOnUse">
<stop stop-color="#FF85B0"/>
<stop offset="1" stop-color="#EB6FFB"/>
</linearGradient>
<linearGradient id="paint31_linear_2003_296" x1="114.003" y1="163.853" x2="21.0701" y2="180.306" gradientUnits="userSpaceOnUse">
<stop stop-color="#FF85B0"/>
<stop offset="1" stop-color="#EB6FFB"/>
</linearGradient>
<linearGradient id="paint32_linear_2003_296" x1="154.831" y1="118.859" x2="153.003" y2="136.734" gradientUnits="userSpaceOnUse">
<stop stop-color="#FF85B0"/>
<stop offset="1" stop-color="#EB6FFB"/>
</linearGradient>
<linearGradient id="paint33_linear_2003_296" x1="178.893" y1="122.091" x2="217.081" y2="73.5426" gradientUnits="userSpaceOnUse">
<stop stop-color="#FF85B0"/>
<stop offset="1" stop-color="#EB6FFB"/>
</linearGradient>
<linearGradient id="paint34_linear_2003_296" x1="130.053" y1="124.888" x2="106.288" y2="168.561" gradientUnits="userSpaceOnUse">
<stop stop-color="#FF85B0"/>
<stop offset="1" stop-color="#EB6FFB"/>
</linearGradient>
<linearGradient id="paint35_linear_2003_296" x1="159.04" y1="121.315" x2="152.39" y2="133.538" gradientUnits="userSpaceOnUse">
<stop stop-color="#FF85B0"/>
<stop offset="1" stop-color="#EB6FFB"/>
</linearGradient>
<linearGradient id="paint36_linear_2003_296" x1="56.3172" y1="164.265" x2="12.0154" y2="232.676" gradientUnits="userSpaceOnUse">
<stop stop-color="#FF85B0"/>
<stop offset="1" stop-color="#EB6FFB"/>
</linearGradient>
<linearGradient id="paint37_linear_2003_296" x1="97.1211" y1="148.27" x2="82.4015" y2="148.27" gradientUnits="userSpaceOnUse">
<stop stop-color="#FF9F44"/>
<stop offset="1" stop-color="#F35674"/>
</linearGradient>
<linearGradient id="paint38_linear_2003_296" x1="122.471" y1="175.908" x2="93.9255" y2="175.908" gradientUnits="userSpaceOnUse">
<stop stop-color="#8180F9"/>
<stop offset="1" stop-color="#6198D7"/>
</linearGradient>
<linearGradient id="paint39_linear_2003_296" x1="97.9252" y1="207.5" x2="92.6231" y2="229.103" gradientUnits="userSpaceOnUse">
<stop stop-color="#BB8DE3"/>
<stop offset="1" stop-color="#717AF6"/>
</linearGradient>
<linearGradient id="paint40_linear_2003_296" x1="109.052" y1="176.981" x2="80.5079" y2="176.981" gradientUnits="userSpaceOnUse">
<stop stop-color="#8180F9"/>
<stop offset="1" stop-color="#6198D7"/>
</linearGradient>
<linearGradient id="paint41_linear_2003_296" x1="96.3763" y1="214.265" x2="94.5202" y2="214.265" gradientUnits="userSpaceOnUse">
<stop stop-color="#221944"/>
<stop offset="1" stop-color="#8F39A0"/>
</linearGradient>
<linearGradient id="paint42_linear_2003_296" x1="107.228" y1="158.185" x2="81.6345" y2="189.282" gradientUnits="userSpaceOnUse">
<stop stop-color="#8180F9"/>
<stop offset="1" stop-color="#6198D7"/>
</linearGradient>
<linearGradient id="paint43_linear_2003_296" x1="35.8192" y1="115.376" x2="68.1814" y2="145.409" gradientUnits="userSpaceOnUse">
<stop stop-color="#446E8C"/>
<stop offset="1" stop-color="#26374F"/>
</linearGradient>
<linearGradient id="paint44_linear_2003_296" x1="63.1101" y1="159.106" x2="90.6005" y2="134.39" gradientUnits="userSpaceOnUse">
<stop stop-color="#FF9F44"/>
<stop offset="1" stop-color="#F35674"/>
</linearGradient>
<linearGradient id="paint45_linear_2003_296" x1="80.6831" y1="130.735" x2="70.9907" y2="130.735" gradientUnits="userSpaceOnUse">
<stop stop-color="#221944"/>
<stop offset="1" stop-color="#8F39A0"/>
</linearGradient>
<linearGradient id="paint46_linear_2003_296" x1="79.4555" y1="155.857" x2="79.6652" y2="136.729" gradientUnits="userSpaceOnUse">
<stop stop-color="#221944"/>
<stop offset="1" stop-color="#8F39A0"/>
</linearGradient>
<linearGradient id="paint47_linear_2003_296" x1="64.0134" y1="160.11" x2="91.5037" y2="135.395" gradientUnits="userSpaceOnUse">
<stop stop-color="#FF9F44"/>
<stop offset="1" stop-color="#F35674"/>
</linearGradient>
<linearGradient id="paint48_linear_2003_296" x1="73.0727" y1="164.034" x2="98.0763" y2="164.034" gradientUnits="userSpaceOnUse">
<stop stop-color="#446E8C"/>
<stop offset="1" stop-color="#26374F"/>
</linearGradient>
<linearGradient id="paint49_linear_2003_296" x1="84.9618" y1="157.467" x2="119.28" y2="157.467" gradientUnits="userSpaceOnUse">
<stop stop-color="#446E8C"/>
<stop offset="1" stop-color="#26374F"/>
</linearGradient>
<linearGradient id="paint50_linear_2003_296" x1="111.273" y1="148.363" x2="94.88" y2="164.625" gradientUnits="userSpaceOnUse">
<stop stop-color="#446E8C"/>
<stop offset="1" stop-color="#26374F"/>
</linearGradient>
<linearGradient id="paint51_linear_2003_296" x1="74.5017" y1="158.922" x2="53.5089" y2="138.264" gradientUnits="userSpaceOnUse">
<stop stop-color="#FF9F44"/>
<stop offset="1" stop-color="#F35674"/>
</linearGradient>
<linearGradient id="paint52_linear_2003_296" x1="73.9499" y1="156.413" x2="80.739" y2="161.166" gradientUnits="userSpaceOnUse">
<stop stop-color="#221944"/>
<stop offset="1" stop-color="#8F39A0"/>
</linearGradient>
</defs>
</svg>
