<svg width="21" height="20" viewBox="0 0 21 20" fill="none" xmlns="http://www.w3.org/2000/svg">
<path d="M18.5774 0H1.50628C0.669456 0 0 0.669456 0 1.42259V18.5774C0 19.3305 0.669456 20 1.50628 20H18.5774C19.4142 20 20.0837 19.3305 20.0837 18.5774V1.42259C20.0837 0.669456 19.4142 0 18.5774 0ZM5.94142 17.0711H3.01255V7.53138H5.94142V17.0711ZM4.51883 6.19247C3.59833 6.19247 2.76151 5.43933 2.76151 4.43515C2.76151 3.43096 3.51464 2.67782 4.51883 2.67782C5.43933 2.67782 6.27615 3.43096 6.27615 4.43515C6.27615 5.43933 5.43933 6.19247 4.51883 6.19247ZM17.1548 16.9874H14.2259V12.3013C14.2259 11.2134 14.2259 9.70711 12.636 9.70711C11.046 9.70711 10.8787 10.9623 10.8787 12.1339V16.9038H7.94979V7.53138H10.7113V8.78661H10.795C11.2134 8.03347 12.2176 7.19665 13.6402 7.19665C16.6527 7.19665 17.2385 9.20502 17.2385 11.7992V16.9874H17.1548Z" fill="currentColor"/>
</svg>
