<svg width="170" height="31" viewBox="0 0 170 31" fill="none" xmlns="http://www.w3.org/2000/svg">
<g clip-path="url(#clip0_126_515)">
<path d="M45.8239 11.5143C44.6788 11.5143 43.7034 11.896 42.9188 12.6593C42.113 13.4227 41.7313 14.377 41.7313 15.5644C41.7313 16.7519 42.1342 17.7061 42.9188 18.4695C43.7034 19.2329 44.6788 19.6146 45.8239 19.6146C46.9689 19.6146 47.9444 19.2329 48.7502 18.4695C49.5347 17.7061 49.9376 16.7519 49.9376 15.5644C49.9376 14.377 49.5347 13.4227 48.7502 12.6593C47.9444 11.896 46.9901 11.5143 45.8239 11.5143Z" fill="currentColor"/>
<path d="M0 15.416C0 23.9192 6.89161 30.832 15.416 30.832H154.605C163.108 30.832 170.021 23.9404 170.021 15.416C170.021 6.91281 163.13 0 154.605 0H15.416C6.89161 0 0 6.89161 0 15.416ZM22.4984 11.3446H15.1191V14.0377H20.6112V17.8546H15.1191V23.8344H10.0723V7.2945H22.4984V11.3659V11.3446ZM36.006 23.8344H24.6401V7.2945H29.6869V19.763H36.006V23.8344ZM52.4186 21.6715C50.6586 23.3042 48.4533 24.1312 45.8239 24.1312C43.1945 24.1312 40.9891 23.3042 39.2291 21.6927C37.4691 20.0811 36.5785 18.0242 36.5785 15.5644C36.5785 13.1047 37.4691 11.0478 39.2291 9.4362C40.9891 7.82462 43.1945 6.99763 45.8239 6.99763C48.4533 6.99763 50.6374 7.80342 52.4186 9.4362C54.1998 11.069 55.0692 13.1047 55.0692 15.5644C55.0692 18.0242 54.1786 20.0599 52.4186 21.6927V21.6715ZM71.4606 23.8344L67.983 14.8223L64.5266 23.8344H61.4731L55.3025 7.67619L55.5357 7.2945H60.3493L63.3392 16.3914L66.4775 7.2945H69.531L72.6905 16.455L75.6592 7.2945H80.4727L80.706 7.67619L74.5354 23.8344H71.4818H71.4606ZM154.605 28.6903H78.6279L86.3677 8.1639C87.746 4.53786 91.2236 2.12049 95.1041 2.12049H154.605C161.942 2.12049 167.901 8.07908 167.901 15.416C167.901 22.7529 161.942 28.7115 154.605 28.7115V28.6903Z" fill="currentColor"/>
<path d="M95.9735 21.6078C95.2314 22.1592 94.2135 22.456 92.8988 22.456C91.987 22.456 91.0752 22.2228 90.2058 21.7351C89.3364 21.2473 88.6578 20.5688 88.2125 19.657H88.0641L86.7918 20.6748V20.8232C87.2795 21.8623 88.0853 22.6681 89.2092 23.2618C90.333 23.8556 91.5417 24.1524 92.8352 24.1524C94.7012 24.1524 96.1856 23.7071 97.2883 22.8165C98.3909 21.9259 98.9422 20.696 98.9422 19.1056C98.9422 18.5119 98.7938 17.9818 98.6242 17.5577C98.5393 17.3456 98.4121 17.1336 98.2425 16.9215C97.882 16.4762 97.7123 16.2642 97.2034 15.9037C96.949 15.7341 96.7369 15.5856 96.5885 15.5008C96.4188 15.416 96.1856 15.2888 95.8675 15.1191C95.5494 14.9707 95.3162 14.8647 95.189 14.801C95.0617 14.7374 94.8073 14.6314 94.4468 14.483C94.0863 14.3557 93.8531 14.2497 93.7682 14.2073C93.3017 13.9953 92.9412 13.8256 92.708 13.7196C92.4535 13.5924 92.1779 13.4227 91.881 13.2107C91.2661 12.7654 91.054 12.2564 91.054 11.6203C91.054 10.7509 91.4145 10.0511 92.1567 9.49981C92.8988 8.96968 93.8106 8.69402 94.9345 8.69402C96.6945 8.69402 97.988 9.37258 98.815 10.7509H98.9422L100.172 9.71186V9.56342C99.7692 8.80004 99.0907 8.1851 98.2001 7.71859C97.3095 7.25208 96.2704 7.01883 95.0829 7.01883C93.3229 7.01883 91.9022 7.46413 90.8207 8.35474C89.7393 9.26655 89.2092 10.4328 89.2092 11.8748C89.2092 12.9986 89.5909 13.8892 90.333 14.5042C90.7147 14.8222 91.0328 15.0343 91.3085 15.1827C91.5841 15.3524 91.9446 15.522 92.4323 15.7553C92.708 15.8613 93.0897 16.0309 93.5774 16.2218C94.0651 16.4338 94.4468 16.6035 94.7012 16.7095C94.9557 16.8367 95.2526 16.9852 95.6131 17.1972C95.9735 17.4092 96.228 17.6001 96.4189 17.7909C96.7581 18.1726 97.0974 18.7452 97.0974 19.4237C97.0974 20.3567 96.7157 21.0989 95.9948 21.6502L95.9735 21.6078Z" fill="currentColor"/>
<path d="M104.456 17.282H108.633C110.732 17.282 112.365 16.7731 113.51 15.7553C114.655 14.7374 115.228 13.3167 115.228 11.4507C115.228 10.1572 114.782 9.13932 113.913 8.39715C113.044 7.65497 111.814 7.27328 110.202 7.27328H104.434L101.444 23.8131H103.289L104.456 17.282ZM105.961 8.92727H110.393C112.259 8.92727 113.319 9.9239 113.319 11.6203C113.319 12.8926 112.959 13.8892 112.259 14.6314C111.559 15.3736 110.563 15.7341 109.269 15.7341H104.752L105.961 8.92727Z" fill="currentColor"/>
<path d="M112.959 23.8343H114.804L117.178 20.1023H125.894L126.89 23.8343H128.587L128.693 23.6859L124.176 7.29449H123.349L112.874 23.6859L112.916 23.8343H112.959ZM123.307 10.348L125.47 18.4695H118.196L123.307 10.348Z" fill="currentColor"/>
<path d="M134.482 16.8367H138.129C138.617 16.8367 138.892 16.9852 139.189 17.7909C139.316 18.1938 139.444 18.5543 139.529 18.83C139.613 19.1057 139.719 19.6782 139.889 20.484C140.44 22.9225 141.289 24.1524 142.943 24.1524C143.536 24.1524 144.045 24.0252 144.469 23.7919L144.554 23.6647L144.406 22.3076L144.321 22.2652C144.003 22.4136 143.663 22.4984 143.282 22.4984C142.688 22.4984 142.306 22.2228 142.031 21.417C141.882 21.0141 141.776 20.6748 141.713 20.4204C141.649 20.1659 141.543 19.7206 141.437 19.1057C141.182 17.7697 140.886 16.9852 140.525 16.7519C143.706 16.2642 145.423 14.3133 145.423 11.3234C145.423 8.82126 143.706 7.3157 140.462 7.3157H134.376L131.386 23.8556H133.231L134.482 16.8579V16.8367ZM135.902 8.92728H140.61C142.455 8.92728 143.515 9.96632 143.515 11.5143C143.515 12.5745 143.176 13.4863 142.476 14.1861C141.776 14.8859 140.843 15.2464 139.656 15.2464H134.779L135.924 8.90607L135.902 8.92728Z" fill="currentColor"/>
<path d="M150.47 17.9606L152.824 15.9249L156.365 21.9471C157.235 23.4102 158.274 24.1524 159.461 24.1524C159.949 24.1524 160.394 24.004 160.797 23.7071L160.903 23.5375L160.776 22.244L160.649 22.1592C160.331 22.35 160.012 22.4348 159.673 22.4348C159.249 22.4348 158.931 22.35 158.698 22.1592C158.464 21.9683 158.168 21.5654 157.807 20.9717L154.181 14.7374L162.811 7.42172L162.769 7.27328H160.5L150.852 15.5008L152.315 7.27328H150.491L147.502 23.8131H149.346L150.407 17.9394L150.47 17.9606Z" fill="currentColor"/>
</g>
<defs>
<clipPath id="clip0_126_515">
<rect width="170" height="30.8108" fill="white"/>
</clipPath>
</defs>
</svg>
